<?xml version="1.0" encoding="UTF-8" standalone="no"?>
<!-- Created with Inkscape (http://www.inkscape.org/) -->

<svg
   width="44.762447mm"
   height="19.806364mm"
   viewBox="0 0 44.762446 19.806364"
   version="1.1"
   id="svg703"
   inkscape:version="1.2.1 (9c6d41e410, 2022-07-14)"
   sodipodi:docname="logo_sive_male.svg"
   xmlns:inkscape="http://www.inkscape.org/namespaces/inkscape"
   xmlns:sodipodi="http://sodipodi.sourceforge.net/DTD/sodipodi-0.dtd"
   xmlns="http://www.w3.org/2000/svg"
   xmlns:svg="http://www.w3.org/2000/svg">
  <sodipodi:namedview
     id="namedview705"
     pagecolor="#ffffff"
     bordercolor="#000000"
     borderopacity="0.25"
     inkscape:showpageshadow="2"
     inkscape:pageopacity="0.0"
     inkscape:pagecheckerboard="0"
     inkscape:deskcolor="#d1d1d1"
     inkscape:document-units="mm"
     showgrid="false"
     inkscape:zoom="1"
     inkscape:cx="189"
     inkscape:cy="-8"
     inkscape:window-width="1895"
     inkscape:window-height="1428"
     inkscape:window-x="1572"
     inkscape:window-y="445"
     inkscape:window-maximized="0"
     inkscape:current-layer="layer1" />
  <defs
     id="defs700" />
  <g
     inkscape:label="Vrstva 1"
     inkscape:groupmode="layer"
     id="layer1"
     transform="translate(-2.3135355,-26.622966)">
    <path
       style="fill:#cccccc;stroke-width:0.0899015"
       d="M 27.257908,29.268799 C 7.6052022,40.176047 7.6052022,40.176047 7.6052022,40.176047 L 19.888145,40.569102 35.512048,29.367059 Z"
       id="path470" />
    <path
       style="fill:#cccccc;stroke-width:0.0899015"
       d="m 13.599278,29.66185 -3.7340144,2.260061 27.2190014,4.618387 4.520119,-2.456589 z"
       id="path472" />
    <g
       aria-label="CROSSROADS"
       transform="matrix(0.34161432,0,0,0.33796887,6.8190936,28.536593)"
       id="text686"
       style="font-weight:bold;font-size:12.8838px;-inkscape-font-specification:'sans-serif Bold';text-align:center;writing-mode:vertical-lr;text-orientation:upright;text-anchor:middle;fill:#cccccc;stroke-width:0.483143">
      <path
         d="m 13.525415,43.885892 v 1.91873 q -1.648221,0.874437 -3.453714,0.874437 -2.3402213,0 -3.7305141,-1.289638 -1.3840019,-1.295929 -1.3840019,-3.189495 0,-1.893567 1.4594929,-3.214659 1.4657838,-1.321093 3.8248781,-1.321093 1.880984,0 3.183204,0.773783 v 1.956475 q -1.597893,-0.899601 -3.025931,-0.899601 -1.4028748,0 -2.2961852,0.75491 -0.8870194,0.748619 -0.8870194,1.912439 0,1.170111 0.8744376,1.931312 0.8807285,0.761201 2.252149,0.761201 0.679419,0 1.30851,-0.176146 0.629092,-0.182436 1.874694,-0.792655 z"
         style="font-family:'Gill Sans MT';-inkscape-font-specification:'Gill Sans MT Bold';writing-mode:lr-tb;fill:#cccccc"
         id="path1109" />
      <path
         d="m 15.267999,37.777411 h 3.925533 q 1.277056,0 2.076003,0.742328 0.798946,0.736037 0.798946,1.78662 0,1.453202 -1.50982,2.151494 0.666837,0.295673 1.258184,1.616766 0.597637,1.321093 1.151237,2.491204 H 20.558661 Q 20.34477,46.131749 19.810042,44.911311 19.281605,43.690873 18.897859,43.344873 18.520404,42.998872 18.08633,42.998872 h -0.629091 v 3.566951 h -2.18924 z m 2.18924,1.610474 v 2.000512 h 1.157528 q 0.553601,0 0.874438,-0.257927 0.327128,-0.264219 0.327128,-0.74862 0,-0.993965 -1.251893,-0.993965 z"
         style="font-family:'Gill Sans MT';-inkscape-font-specification:'Gill Sans MT Bold';writing-mode:lr-tb;fill:#cccccc"
         id="path1111" />
      <path
         d="m 28.453762,37.664174 q 2.245858,0 3.63615,1.358838 1.390293,1.352548 1.390293,3.15175 0,1.824366 -1.409165,3.164332 -1.409166,1.339965 -3.617278,1.339965 -2.233276,0 -3.63615,-1.333674 -1.402875,-1.333675 -1.402875,-3.170623 0,-1.805493 1.390293,-3.158041 1.396583,-1.352547 3.648732,-1.352547 z m 0,7.190519 q 1.245602,0 2.006803,-0.736037 0.761201,-0.742329 0.761201,-1.943894 0,-1.207856 -0.761201,-1.943894 -0.761201,-0.736037 -2.006803,-0.736037 -1.251893,0 -2.019385,0.736037 -0.761201,0.736038 -0.761201,1.943894 0,1.201565 0.761201,1.943894 0.767492,0.736037 2.019385,0.736037 z"
         style="font-family:'Gill Sans MT';-inkscape-font-specification:'Gill Sans MT Bold';writing-mode:lr-tb;fill:#cccccc"
         id="path1113" />
      <path
         d="m 41.029307,38.343593 v 1.717421 q -1.748875,-0.786365 -2.786877,-0.786365 -0.591346,0 -0.943637,0.201309 -0.346001,0.195019 -0.346001,0.522146 0,0.251637 0.251637,0.47811 0.251637,0.226473 1.226729,0.585056 0.975092,0.358582 1.560148,0.666837 0.585055,0.308255 1.006546,0.868147 0.427783,0.559891 0.427783,1.415456 0,1.220438 -0.931056,1.943894 -0.924765,0.723455 -2.440876,0.723455 -1.635639,0 -3.170623,-0.849274 v -1.893566 q 0.880729,0.591346 1.560148,0.861856 0.679419,0.270509 1.44062,0.270509 1.289638,0 1.289638,-0.811528 0,-0.276801 -0.257927,-0.522146 -0.257928,-0.245346 -1.245602,-0.597638 -0.981383,-0.352291 -1.560148,-0.654255 -0.572473,-0.301964 -0.993965,-0.861856 -0.4152,-0.559891 -0.4152,-1.434329 0,-1.132365 0.912183,-1.824366 0.912183,-0.698292 2.440876,-0.698292 1.409165,0 2.975604,0.679419 z"
         style="font-family:'Gill Sans MT';-inkscape-font-specification:'Gill Sans MT Bold';writing-mode:lr-tb;fill:#cccccc"
         id="path1115" />
      <path
         d="m 48.811171,38.343593 v 1.717421 q -1.748875,-0.786365 -2.786876,-0.786365 -0.591347,0 -0.943638,0.201309 -0.346001,0.195019 -0.346001,0.522146 0,0.251637 0.251637,0.47811 0.251637,0.226473 1.226729,0.585056 0.975092,0.358582 1.560148,0.666837 0.585055,0.308255 1.006547,0.868147 0.427782,0.559891 0.427782,1.415456 0,1.220438 -0.931056,1.943894 -0.924765,0.723455 -2.440876,0.723455 -1.635639,0 -3.170623,-0.849274 v -1.893566 q 0.880729,0.591346 1.560148,0.861856 0.679419,0.270509 1.44062,0.270509 1.289638,0 1.289638,-0.811528 0,-0.276801 -0.257927,-0.522146 -0.257928,-0.245346 -1.245602,-0.597638 -0.981383,-0.352291 -1.560148,-0.654255 -0.572473,-0.301964 -0.993965,-0.861856 -0.4152,-0.559891 -0.4152,-1.434329 0,-1.132365 0.912183,-1.824366 0.912183,-0.698292 2.440876,-0.698292 1.409166,0 2.975604,0.679419 z"
         style="font-family:'Gill Sans MT';-inkscape-font-specification:'Gill Sans MT Bold';writing-mode:lr-tb;fill:#cccccc"
         id="path1117" />
      <path
         d="m 50.629249,37.777411 h 3.925533 q 1.277056,0 2.076003,0.742328 0.798946,0.736037 0.798946,1.78662 0,1.453202 -1.50982,2.151494 0.666837,0.295673 1.258183,1.616766 0.597638,1.321093 1.151238,2.491204 H 55.919911 Q 55.70602,46.131749 55.171292,44.911311 54.642855,43.690873 54.259109,43.344873 53.881654,42.998872 53.44758,42.998872 h -0.629092 v 3.566951 h -2.189239 z m 2.189239,1.610474 v 2.000512 h 1.157529 q 0.553601,0 0.874438,-0.257927 0.327128,-0.264219 0.327128,-0.74862 0,-0.993965 -1.251893,-0.993965 z"
         style="font-family:'Gill Sans MT';-inkscape-font-specification:'Gill Sans MT Bold';writing-mode:lr-tb;fill:#cccccc"
         id="path1119" />
      <path
         d="m 63.815016,37.664174 q 2.245857,0 3.63615,1.358838 1.390293,1.352548 1.390293,3.15175 0,1.824366 -1.409166,3.164332 -1.409165,1.339965 -3.617277,1.339965 -2.233276,0 -3.636151,-1.333674 -1.402874,-1.333675 -1.402874,-3.170623 0,-1.805493 1.390292,-3.158041 1.396584,-1.352547 3.648733,-1.352547 z m 0,7.190519 q 1.245601,0 2.006803,-0.736037 0.761201,-0.742329 0.761201,-1.943894 0,-1.207856 -0.761201,-1.943894 -0.761202,-0.736037 -2.006803,-0.736037 -1.251893,0 -2.019385,0.736037 -0.761201,0.736038 -0.761201,1.943894 0,1.201565 0.761201,1.943894 0.767492,0.736037 2.019385,0.736037 z"
         style="font-family:'Gill Sans MT';-inkscape-font-specification:'Gill Sans MT Bold';writing-mode:lr-tb;fill:#cccccc"
         id="path1121" />
      <path
         d="m 75.050591,37.777411 3.900369,8.788412 h -2.352803 l -0.723456,-1.736294 h -3.931823 l -0.654256,1.736294 h -2.321349 l 3.541787,-8.788412 z m 0.176146,5.517134 -1.415457,-3.415968 -1.289638,3.415968 z"
         style="font-family:'Gill Sans MT';-inkscape-font-specification:'Gill Sans MT Bold';writing-mode:lr-tb;fill:#cccccc"
         id="path1123" />
      <path
         d="m 79.95751,37.777411 h 3.875206 q 2.245857,0 3.548077,1.233019 1.308511,1.226729 1.308511,3.176914 0,2.044548 -1.327383,3.214659 -1.321093,1.16382 -3.774551,1.16382 h -3.62986 z m 2.18924,1.610474 v 5.567463 h 1.428038 q 1.390293,0 2.12633,-0.761201 0.736038,-0.767492 0.736038,-2.019385 0,-1.295929 -0.748619,-2.038257 -0.742329,-0.74862 -2.138913,-0.74862 z"
         style="font-family:'Gill Sans MT';-inkscape-font-specification:'Gill Sans MT Bold';writing-mode:lr-tb;fill:#cccccc"
         id="path1125" />
      <path
         d="m 96.263564,38.343593 v 1.717421 q -1.748875,-0.786365 -2.786877,-0.786365 -0.591346,0 -0.943638,0.201309 -0.346,0.195019 -0.346,0.522146 0,0.251637 0.251637,0.47811 0.251636,0.226473 1.226729,0.585056 0.975092,0.358582 1.560147,0.666837 0.585056,0.308255 1.006547,0.868147 0.427783,0.559891 0.427783,1.415456 0,1.220438 -0.931056,1.943894 -0.924765,0.723455 -2.440876,0.723455 -1.635639,0 -3.170623,-0.849274 v -1.893566 q 0.880729,0.591346 1.560148,0.861856 0.679419,0.270509 1.44062,0.270509 1.289638,0 1.289638,-0.811528 0,-0.276801 -0.257928,-0.522146 Q 93.891888,43.489564 92.904214,43.137272 91.92283,42.784981 91.344066,42.483017 90.771593,42.181053 90.350101,41.621161 89.9349,41.06127 89.9349,40.186832 q 0,-1.132365 0.912184,-1.824366 0.912183,-0.698292 2.440876,-0.698292 1.409165,0 2.975604,0.679419 z"
         style="font-family:'Gill Sans MT';-inkscape-font-specification:'Gill Sans MT Bold';writing-mode:lr-tb;fill:#cccccc"
         id="path1127" />
    </g>
  </g>
</svg>
